<svg width="173" height="172" viewBox="0 0 173 172" fill="none" xmlns="http://www.w3.org/2000/svg">
    <rect x="0.714355" width="172" height="172" rx="23.8257" fill="white"/>
    <rect x="10.145" y="9.41699" width="153.139" height="153.166" rx="16.335" fill="#161616"/>
    <path d="M45.1457 126.372H31.2729C30.6451 126.372 30.125 126.883 30.125 127.52V141.393C30.125 142.021 30.6362 142.541 31.2729 142.541H45.1457C45.7734 142.541 46.2935 142.029 46.2935 141.393V127.52C46.2935 126.892 45.7824 126.372 45.1457 126.372ZM51.683 126.372V147.267C51.683 147.634 51.3871 147.921 51.0284 147.921H25.4081C25.0404 147.921 24.7534 147.625 24.7534 147.267V121.646C24.7534 121.279 25.0494 120.992 25.4081 120.992H51.0284C51.3961 120.992 51.683 121.288 51.683 121.646V126.381V126.372ZM55.9247 115.593H20.5028C19.8751 115.593 19.355 116.113 19.355 116.741V152.172C19.355 152.8 19.8661 153.32 20.5028 153.32H55.9247C56.5524 153.32 57.0725 152.809 57.0725 152.172V116.741C57.0725 116.113 56.5614 115.593 55.9247 115.593ZM142.121 29.406H128.248C127.62 29.406 127.1 29.9171 127.1 30.5538V44.4266C127.1 45.0543 127.611 45.5745 128.248 45.5745H142.121C142.749 45.5745 143.269 45.0633 143.269 44.4266V30.5538C143.269 29.9261 142.758 29.406 142.121 29.406ZM148.658 29.406V50.3004C148.658 50.668 148.362 50.955 148.004 50.955H122.383C122.016 50.955 121.729 50.6591 121.729 50.3004V24.6801C121.729 24.3124 122.025 24.0254 122.383 24.0254H148.004C148.371 24.0254 148.658 24.3214 148.658 24.6801V29.406ZM152.9 18.627H117.469C116.841 18.627 116.321 19.1471 116.321 19.7748V55.2056C116.321 55.8333 116.832 56.3535 117.469 56.3535H152.9C153.528 56.3535 154.048 55.8423 154.048 55.2056V19.7748C154.048 19.1471 153.537 18.627 152.9 18.627ZM31.2729 45.5745H45.1457C45.7734 45.5745 46.2935 45.0633 46.2935 44.4266V30.5538C46.2935 29.9261 45.7824 29.406 45.1457 29.406H31.2729C30.6451 29.406 30.125 29.9171 30.125 30.5538V44.4266C30.125 45.0543 30.6362 45.5745 31.2729 45.5745ZM24.7445 45.5745V24.6801C24.7445 24.3124 25.0404 24.0254 25.3991 24.0254H51.0194C51.3871 24.0254 51.6741 24.3214 51.6741 24.6801V50.3004C51.6741 50.668 51.3781 50.955 51.0194 50.955H25.4081C25.0404 50.955 24.7534 50.6591 24.7534 50.3004V45.5655L24.7445 45.5745ZM20.5028 56.3535H55.9247C56.5524 56.3535 57.0725 55.8423 57.0725 55.2056V19.7748C57.0725 19.1471 56.5614 18.627 55.9247 18.627H20.5028C19.8751 18.627 19.355 19.1471 19.355 19.7748V55.2056C19.355 55.8333 19.8661 56.3535 20.5028 56.3535ZM88.2527 147.93H85.1589C84.5222 147.93 84.0111 148.441 84.0111 149.078V152.172C84.0111 152.8 84.5222 153.32 85.1589 153.32H88.2527C88.8894 153.32 89.4006 152.809 89.4006 152.172V149.078C89.4006 148.441 88.8894 147.93 88.2527 147.93ZM77.4827 147.93H74.3889C73.7611 147.93 73.241 148.441 73.241 149.078V152.172C73.241 152.8 73.7522 153.32 74.3889 153.32H77.4827C78.1194 153.32 78.6305 152.809 78.6305 152.172V149.078C78.6305 148.441 78.1194 147.93 77.4827 147.93ZM131.36 142.541H128.257C127.629 142.541 127.109 143.052 127.109 143.688V146.782C127.109 147.419 127.62 147.93 128.257 147.93H131.36C131.996 147.93 132.508 147.419 132.508 146.782V143.688C132.508 143.052 131.996 142.541 131.36 142.541ZM73.241 143.688C73.241 143.052 72.7299 142.541 72.0932 142.541H68.9994C68.3627 142.541 67.8515 142.029 67.8515 141.393V138.299C67.8515 137.671 68.3627 137.151 68.9994 137.151H77.4827C78.1194 137.151 78.6305 136.64 78.6305 136.003V132.909C78.6305 132.273 79.1417 131.762 79.7784 131.762H82.8722C83.5089 131.762 84.02 131.25 84.02 130.614V127.511C84.02 126.874 83.5089 126.363 82.8722 126.363H74.3889C73.7611 126.363 73.241 126.874 73.241 127.511V130.614C73.241 131.25 72.7299 131.762 72.0932 131.762H63.6099C62.9732 131.762 62.462 132.273 62.462 132.909V152.172C62.462 152.8 62.9732 153.32 63.6099 153.32H66.7037C67.3404 153.32 67.8515 152.809 67.8515 152.172V149.078C67.8515 148.441 68.3627 147.93 68.9994 147.93H72.0932C72.7209 147.93 73.241 147.419 73.241 146.782V143.688ZM84.02 138.299C84.02 137.671 83.5089 137.151 82.8722 137.151H79.7784C79.1506 137.151 78.6305 137.662 78.6305 138.299V141.393C78.6305 142.021 79.1417 142.541 79.7784 142.541H82.8722C83.5089 142.541 84.02 142.029 84.02 141.393V138.299ZM88.2617 131.771H85.1679C84.5312 131.771 84.02 132.282 84.02 132.918V136.012C84.02 136.649 84.5312 137.16 85.1679 137.16H88.2617C88.8984 137.16 89.4095 136.649 89.4095 136.012V132.918C89.4095 132.282 88.8984 131.771 88.2617 131.771ZM142.139 131.771C142.775 131.771 143.287 131.259 143.287 130.623V127.52C143.287 126.883 142.775 126.372 142.139 126.372H139.045C138.408 126.372 137.897 126.883 137.897 127.52V130.623C137.897 131.259 138.408 131.771 139.045 131.771H142.139ZM127.118 115.611V125.242C127.118 125.879 126.607 126.39 125.97 126.39H112.097C111.461 126.39 110.95 125.879 110.95 125.242V111.369C110.95 110.733 111.461 110.222 112.097 110.222H125.97C126.607 110.222 127.118 110.733 127.118 111.369V115.611ZM152.909 115.611H144.425C143.789 115.611 143.278 115.1 143.278 114.463V111.369C143.278 110.733 142.766 110.222 142.13 110.222H133.646C133.01 110.222 132.499 109.71 132.499 109.074V105.971C132.499 105.334 131.987 104.823 131.351 104.823H117.478C116.841 104.823 116.33 104.312 116.33 103.675V95.1919C116.33 94.5553 115.819 94.0441 115.182 94.0441H112.088C111.452 94.0441 110.941 93.533 110.941 92.8963V89.8025C110.941 89.1747 110.429 88.6546 109.793 88.6546H106.699C106.062 88.6546 105.551 88.1434 105.551 87.5068V79.0234C105.551 78.3867 105.04 77.8756 104.403 77.8756H79.7604C79.1327 77.8756 78.6126 78.3867 78.6126 79.0234V87.5068C78.6126 88.1345 78.1014 88.6546 77.4647 88.6546H74.3709C73.7432 88.6546 73.2231 88.1434 73.2231 87.5068V84.404C73.2231 83.7673 72.7119 83.2561 72.0752 83.2561H68.9814C68.3447 83.2561 67.8336 83.7673 67.8336 84.404V87.5068C67.8336 88.1345 67.3224 88.6546 66.6857 88.6546H63.5919C62.9552 88.6546 62.4441 89.1658 62.4441 89.8025V98.2858C62.4441 98.9135 62.9552 99.4336 63.5919 99.4336H66.6857C67.3224 99.4336 67.8336 98.9225 67.8336 98.2858V95.183C67.8336 94.5463 68.3447 94.0351 68.9814 94.0351H72.0752C72.703 94.0351 73.2231 94.5463 73.2231 95.183V98.2858C73.2231 98.9135 73.7342 99.4336 74.3709 99.4336H77.4647C78.1014 99.4336 78.6126 98.9225 78.6126 98.2858V95.183C78.6126 94.5463 79.1237 94.0351 79.7604 94.0351H82.8542C83.4909 94.0351 84.0021 93.524 84.0021 92.8873V84.404C84.0021 83.7673 84.5132 83.2561 85.1499 83.2561H88.2437C88.8804 83.2561 89.3916 83.7673 89.3916 84.404V87.5068C89.3916 88.1345 89.9027 88.6546 90.5394 88.6546H93.6332C94.2699 88.6546 94.7811 88.1434 94.7811 87.5068V84.404C94.7811 83.7673 95.2922 83.2561 95.9289 83.2561H99.0227C99.6594 83.2561 100.171 83.7673 100.171 84.404V92.8873C100.171 93.524 99.6594 94.0351 99.0227 94.0351H95.9289C95.3012 94.0351 94.7811 94.5463 94.7811 95.183V98.2858C94.7811 98.9135 95.2922 99.4336 95.9289 99.4336H109.802C110.438 99.4336 110.95 99.9448 110.95 100.581V103.675C110.95 104.312 110.438 104.823 109.802 104.823H106.708C106.071 104.823 105.56 105.334 105.56 105.971V109.074C105.56 109.71 105.049 110.222 104.412 110.222H95.9289C95.3012 110.222 94.7811 109.71 94.7811 109.074V100.59C94.7811 99.9537 94.2699 99.4426 93.6332 99.4426H90.5394C89.9027 99.4426 89.3916 98.9314 89.3916 98.2947V95.1919C89.3916 94.5553 88.8804 94.0441 88.2437 94.0441H85.1499C84.5132 94.0441 84.0021 94.5553 84.0021 95.1919V103.675C84.0021 104.312 84.5132 104.823 85.1499 104.823H88.2437C88.8804 104.823 89.3916 105.334 89.3916 105.971V109.074C89.3916 109.71 88.8804 110.222 88.2437 110.222H85.1499C84.5132 110.222 84.0021 110.733 84.0021 111.369V114.463C84.0021 115.1 83.4909 115.611 82.8542 115.611H74.3709C73.7432 115.611 73.2231 116.122 73.2231 116.759V119.862C73.2231 120.498 73.7342 121.01 74.3709 121.01H82.8542C83.4909 121.01 84.0021 121.521 84.0021 122.157V125.251C84.0021 125.888 84.5132 126.399 85.1499 126.399H88.2437C88.8804 126.399 89.3916 125.888 89.3916 125.251V122.157C89.3916 121.521 89.9027 121.01 90.5394 121.01H99.0227C99.6594 121.01 100.171 120.498 100.171 119.862V116.759C100.171 116.122 100.682 115.611 101.318 115.611H104.412C105.049 115.611 105.56 116.122 105.56 116.759V119.862C105.56 120.498 105.049 121.01 104.412 121.01H101.318C100.682 121.01 100.171 121.521 100.171 122.157V125.251C100.171 125.888 99.6594 126.399 99.0227 126.399H90.5394C89.9027 126.399 89.3916 126.91 89.3916 127.547V130.65C89.3916 131.286 89.9027 131.798 90.5394 131.798H93.6332C94.2699 131.798 94.7811 132.309 94.7811 132.945V136.039C94.7811 136.676 95.2922 137.187 95.9289 137.187H99.0227C99.6594 137.187 100.171 137.698 100.171 138.335V152.208C100.171 152.835 100.682 153.356 101.318 153.356H104.412C105.049 153.356 105.56 152.844 105.56 152.208V138.335C105.56 137.707 106.071 137.187 106.708 137.187H109.802C110.438 137.187 110.95 136.676 110.95 136.039V132.945C110.95 132.309 111.461 131.798 112.097 131.798H115.191C115.828 131.798 116.339 132.309 116.339 132.945V136.039C116.339 136.676 115.828 137.187 115.191 137.187H112.097C111.461 137.187 110.95 137.698 110.95 138.335V146.818C110.95 147.455 111.461 147.966 112.097 147.966H115.191C115.828 147.966 116.339 147.455 116.339 146.818V143.724C116.339 143.088 116.85 142.577 117.487 142.577H120.581C121.208 142.577 121.729 142.065 121.729 141.429V132.945C121.729 132.309 122.24 131.798 122.876 131.798H125.97C126.607 131.798 127.118 132.309 127.118 132.945V136.039C127.118 136.676 127.629 137.187 128.266 137.187H131.369C132.005 137.187 132.517 136.676 132.517 136.039V116.777C132.517 116.14 133.028 115.629 133.664 115.629H136.758C137.395 115.629 137.906 116.14 137.906 116.777V119.88C137.906 120.516 138.417 121.027 139.054 121.027H142.148C142.784 121.027 143.296 121.539 143.296 122.175V125.269C143.296 125.906 143.807 126.417 144.443 126.417H147.537C148.174 126.417 148.685 126.928 148.685 127.565V130.668C148.685 131.304 148.174 131.815 147.537 131.815H144.443C143.807 131.815 143.296 132.327 143.296 132.963V136.057C143.296 136.694 142.784 137.205 142.148 137.205H133.664C133.028 137.205 132.517 137.716 132.517 138.353V141.447C132.517 142.074 133.028 142.594 133.664 142.594H136.758C137.395 142.594 137.906 143.106 137.906 143.742V152.226C137.906 152.853 138.417 153.373 139.054 153.373H152.927C153.563 153.373 154.075 152.862 154.075 152.226V143.742C154.075 143.106 153.563 142.594 152.927 142.594H149.833C149.196 142.594 148.685 142.083 148.685 141.447V138.353C148.685 137.725 149.196 137.205 149.833 137.205H152.927C153.563 137.205 154.075 136.694 154.075 136.057V116.795C154.075 116.158 153.563 115.647 152.927 115.647M120.608 115.647H117.514C116.877 115.647 116.366 116.158 116.366 116.795V119.898C116.366 120.534 116.877 121.045 117.514 121.045H120.608C121.235 121.045 121.756 120.534 121.756 119.898V116.795C121.756 116.158 121.244 115.647 120.608 115.647ZM62.4889 114.499C62.4889 115.136 63.0001 115.647 63.6368 115.647H72.1201C72.7478 115.647 73.2679 115.136 73.2679 114.499V111.405C73.2679 110.769 72.7568 110.257 72.1201 110.257H69.0263C68.3896 110.257 67.8784 109.746 67.8784 109.11V106.007C67.8784 105.37 67.3673 104.859 66.7306 104.859H63.6368C63.0001 104.859 62.4889 104.348 62.4889 103.711V100.617C62.4889 99.9806 61.9778 99.4695 61.3411 99.4695H58.2473C57.6106 99.4695 57.0994 99.9806 57.0994 100.617V103.711C57.0994 104.348 56.5883 104.859 55.9516 104.859H52.8578C52.2211 104.859 51.7099 105.37 51.7099 106.007V109.11C51.7099 109.746 52.2211 110.257 52.8578 110.257H61.3411C61.9778 110.257 62.4889 110.769 62.4889 111.405V114.499ZM73.259 109.11C73.259 109.746 73.7701 110.257 74.4068 110.257H82.8901C83.5268 110.257 84.038 109.746 84.038 109.11V106.007C84.038 105.37 83.5268 104.859 82.8901 104.859H74.4068C73.7791 104.859 73.259 105.37 73.259 106.007V109.11ZM36.6893 110.257H39.7831C40.4108 110.257 40.9309 109.746 40.9309 109.11V106.007C40.9309 105.37 40.4198 104.859 39.7831 104.859H36.6893C36.0615 104.859 35.5414 105.37 35.5414 106.007V109.11C35.5414 109.746 36.0526 110.257 36.6893 110.257ZM72.1111 99.4874H69.0173C68.3806 99.4874 67.8695 99.9986 67.8695 100.635V103.729C67.8695 104.366 68.3806 104.877 69.0173 104.877H72.1111C72.7388 104.877 73.259 104.366 73.259 103.729V100.635C73.259 99.9986 72.7478 99.4874 72.1111 99.4874ZM46.3204 99.4874H42.0788C41.451 99.4874 40.9309 99.9986 40.9309 100.635V103.729C40.9309 104.366 41.4421 104.877 42.0788 104.877H50.5621C51.1988 104.877 51.7099 104.366 51.7099 103.729V100.635C51.7099 99.9986 51.1988 99.4874 50.5621 99.4874H46.3204ZM23.6235 99.4874H20.5028C19.8751 99.4874 19.355 99.9986 19.355 100.635V103.729C19.355 104.366 19.8661 104.877 20.5028 104.877H23.5966C24.2244 104.877 24.7445 104.366 24.7445 103.729V100.635C24.7445 99.9986 24.2333 99.4874 23.5966 99.4874M52.8219 94.0979C52.1852 94.0979 51.6741 94.6091 51.6741 95.2458V98.3485C51.6741 98.9763 52.1852 99.4964 52.8219 99.4964H55.9157C56.5524 99.4964 57.0636 98.9852 57.0636 98.3485V95.2458C57.0636 94.6091 56.5524 94.0979 55.9157 94.0979H52.8219ZM25.8834 99.4874H34.3667C34.9944 99.4874 35.5145 98.9763 35.5145 98.3396V84.4668C35.5145 83.8301 35.0034 83.3189 34.3667 83.3189H31.2729C30.6362 83.3189 30.125 83.8301 30.125 84.4668V87.5695C30.125 88.1973 29.6139 88.7174 28.9772 88.7174H25.8744C25.2467 88.7174 24.7265 89.2285 24.7265 89.8652V98.3485C24.7265 98.9763 25.2377 99.4964 25.8744 99.4964M24.7265 84.4757C24.7265 83.839 24.2154 83.3279 23.5787 83.3279H20.5028C19.8751 83.3279 19.355 83.839 19.355 84.4757V87.5785C19.355 88.2062 19.8661 88.7263 20.5028 88.7263H23.5966C24.2244 88.7263 24.7445 88.2152 24.7445 87.5785V84.4757H24.7265ZM127.082 72.5578H131.324C131.961 72.5578 132.472 72.0467 132.472 71.41V68.3162C132.472 67.6795 132.983 67.1683 133.62 67.1683H142.103C142.74 67.1683 143.251 66.6572 143.251 66.0205V62.9177C143.251 62.29 142.74 61.7699 142.103 61.7699H128.23C127.602 61.7699 127.082 62.281 127.082 62.9177V66.0205C127.082 66.6482 126.571 67.1683 125.934 67.1683H122.841C122.204 67.1683 121.693 67.6795 121.693 68.3162V71.41C121.693 72.0467 122.204 72.5578 122.841 72.5578H127.082ZM72.0663 67.1683H68.9725C68.3358 67.1683 67.8246 67.6795 67.8246 68.3162V71.41C67.8246 72.0467 68.3358 72.5578 68.9725 72.5578H72.0663C72.694 72.5578 73.2141 72.0467 73.2141 71.41V68.3162C73.2141 67.6795 72.703 67.1683 72.0663 67.1683ZM57.0456 71.41C57.0456 72.0467 56.5345 72.5578 55.8978 72.5578H52.804C52.1673 72.5578 51.6561 72.0467 51.6561 71.41V68.3162C51.6561 67.6795 51.145 67.1683 50.5083 67.1683H42.025C41.3972 67.1683 40.8771 66.6572 40.8771 66.0205V62.9177C40.8771 62.29 40.366 61.7699 39.7293 61.7699H20.5028C19.8751 61.7699 19.355 62.281 19.355 62.9177V66.0205C19.355 66.6482 19.8661 67.1683 20.5028 67.1683H23.5966C24.2244 67.1683 24.7445 67.6795 24.7445 68.3162V71.41C24.7445 72.0467 24.2333 72.5578 23.5966 72.5578H20.5028C19.8751 72.5578 19.355 73.069 19.355 73.7057V76.7995C19.355 77.4362 19.8661 77.9473 20.5028 77.9473H34.3756C35.0034 77.9473 35.5235 77.4362 35.5235 76.7995V73.7057C35.5235 73.069 35.0123 72.5578 34.3756 72.5578H31.2818C30.6451 72.5578 30.134 72.0467 30.134 71.41V68.3162C30.134 67.6795 30.6451 67.1683 31.2818 67.1683H34.3756C35.0034 67.1683 35.5235 67.6795 35.5235 68.3162V71.41C35.5235 72.0467 36.0346 72.5578 36.6713 72.5578H45.1546C45.7824 72.5578 46.3025 73.069 46.3025 73.7057V76.7995C46.3025 77.4362 46.8136 77.9473 47.4503 77.9473H55.9336C56.5703 77.9473 57.0815 78.4585 57.0815 79.0952V82.189C57.0815 82.8257 56.5703 83.3368 55.9336 83.3368H47.4503C46.8226 83.3368 46.3025 82.8257 46.3025 82.189V79.0952C46.3025 78.4585 45.7913 77.9473 45.1546 77.9473H42.0608C41.4331 77.9473 40.913 78.4585 40.913 79.0952V92.968C40.913 93.6047 41.4241 94.1158 42.0608 94.1158H45.1546C45.7824 94.1158 46.3025 93.6047 46.3025 92.968V89.8742C46.3025 89.2465 46.8136 88.7263 47.4503 88.7263H61.3231C61.9598 88.7263 62.471 88.2152 62.471 87.5785V84.4757C62.471 83.839 62.9821 83.3279 63.6188 83.3279H66.7126C67.3493 83.3279 67.8605 82.8167 67.8605 82.18V79.0862C67.8605 78.4495 67.3493 77.9384 66.7126 77.9384H63.6188C62.9821 77.9384 62.471 77.4272 62.471 76.7905V68.3072C62.471 67.6705 61.9598 67.1594 61.3231 67.1594H58.2293C57.5926 67.1594 57.0815 67.6705 57.0815 68.3072V71.401L57.0456 71.41ZM132.463 92.959C132.463 93.5957 131.952 94.1069 131.315 94.1069H128.212C127.584 94.1069 127.064 93.5957 127.064 92.959V89.8652C127.064 89.2375 127.575 88.7174 128.212 88.7174H131.315C131.952 88.7174 132.463 89.2285 132.463 89.8652V92.959ZM152.864 61.7788H149.77C149.133 61.7788 148.622 62.29 148.622 62.9267V71.41C148.622 72.0467 148.111 72.5578 147.474 72.5578H133.602C132.965 72.5578 132.454 73.069 132.454 73.7057V82.189C132.454 82.8257 131.943 83.3368 131.306 83.3368H128.203C127.575 83.3368 127.055 82.8257 127.055 82.189V79.0952C127.055 78.4585 126.544 77.9473 125.907 77.9473H112.035C111.398 77.9473 110.887 78.4585 110.887 79.0952V82.189C110.887 82.8257 111.398 83.3368 112.035 83.3368H115.128C115.765 83.3368 116.276 83.848 116.276 84.4847V87.5875C116.276 88.2152 116.787 88.7353 117.424 88.7353H120.518C121.146 88.7353 121.666 89.2465 121.666 89.8832V98.3665C121.666 98.9942 122.177 99.5143 122.814 99.5143H136.686C137.323 99.5143 137.834 99.0032 137.834 98.3665V84.4937C137.834 83.857 138.345 83.3458 138.982 83.3458H142.076C142.713 83.3458 143.224 82.8347 143.224 82.198V79.1042C143.224 78.4675 143.735 77.9563 144.372 77.9563H147.465C148.102 77.9563 148.613 78.4675 148.613 79.1042V82.198C148.613 82.8347 148.102 83.3458 147.465 83.3458H144.372C143.735 83.3458 143.224 83.857 143.224 84.4937V109.145C143.224 109.782 143.735 110.293 144.372 110.293H147.465C148.102 110.293 148.613 109.782 148.613 109.145V106.043C148.613 105.406 149.124 104.895 149.761 104.895H152.855C153.492 104.895 154.003 104.384 154.003 103.747V100.653C154.003 100.016 153.492 99.5053 152.855 99.5053H149.761C149.124 99.5053 148.613 98.9942 148.613 98.3575V95.2547C148.613 94.618 149.124 94.1069 149.761 94.1069H152.855C153.492 94.1069 154.003 93.5957 154.003 92.959V62.8729C154.003 62.2451 153.492 61.725 152.855 61.725M63.565 67.1145H66.6588C67.2955 67.1145 67.8067 66.6034 67.8067 65.9667V62.8639C67.8067 62.2362 67.2955 61.7161 66.6588 61.7161H63.565C62.9283 61.7161 62.4172 62.2272 62.4172 62.8639V65.9667C62.4172 66.5944 62.9283 67.1145 63.565 67.1145ZM52.795 67.1145H55.8888C56.5255 67.1145 57.0367 66.6034 57.0367 65.9667V62.8639C57.0367 62.2362 56.5255 61.7161 55.8888 61.7161H52.795C52.1583 61.7161 51.6471 62.2272 51.6471 62.8639V65.9667C51.6471 66.5944 52.1583 67.1145 52.795 67.1145ZM79.7335 61.725H82.8273C83.464 61.725 83.9752 61.2139 83.9752 60.5772V57.4834C83.9752 56.8556 83.464 56.3355 82.8273 56.3355H79.7335C79.1058 56.3355 78.5857 56.8467 78.5857 57.4834V60.5772C78.5857 61.2139 79.0968 61.725 79.7335 61.725ZM73.2052 57.4834C73.2052 56.8556 72.694 56.3355 72.0573 56.3355H68.9635C68.3268 56.3355 67.8157 56.8467 67.8157 57.4834V60.5772C67.8157 61.2139 68.3268 61.725 68.9635 61.725H72.0573C72.685 61.725 73.2052 61.2139 73.2052 60.5772V57.4834ZM89.3647 50.955V46.7133C89.3647 46.0766 88.8535 45.5655 88.2168 45.5655H85.123C84.4863 45.5655 83.9752 46.0766 83.9752 46.7133V55.1966C83.9752 55.8333 84.4863 56.3445 85.123 56.3445H88.2168C88.8535 56.3445 89.3647 55.8333 89.3647 55.1966V50.955ZM78.5947 52.1028C78.5947 51.4751 78.0835 50.955 77.4468 50.955H74.353C73.7253 50.955 73.2052 51.4661 73.2052 52.1028V55.2056C73.2052 55.8423 73.7163 56.3535 74.353 56.3535H77.4468C78.0835 56.3535 78.5947 55.8423 78.5947 55.2056V52.1028ZM63.574 56.3445H66.6678C67.3045 56.3445 67.8157 55.8333 67.8157 55.1966V52.0939C67.8157 51.4661 67.3045 50.946 66.6678 50.946H63.574C62.9373 50.946 62.4262 51.4572 62.4262 52.0939V55.1966C62.4262 55.8333 62.9373 56.3445 63.574 56.3445ZM63.574 45.5745H66.6678C67.3045 45.5745 67.8157 46.0856 67.8157 46.7223V49.8161C67.8157 50.4528 68.3268 50.964 68.9635 50.964H72.0573C72.685 50.964 73.2052 50.4528 73.2052 49.8161V46.7223C73.2052 46.0856 73.7163 45.5745 74.353 45.5745H82.8363C83.473 45.5745 83.9842 45.0633 83.9842 44.4266V35.9433C83.9842 35.3156 84.4953 34.7955 85.132 34.7955H88.2258C88.8625 34.7955 89.3737 35.3066 89.3737 35.9433V39.0371C89.3737 39.6738 89.8848 40.185 90.5215 40.185H93.6153C94.252 40.185 94.7632 39.6738 94.7632 39.0371V25.1643C94.7632 24.5366 94.252 24.0165 93.6153 24.0165H90.5215C89.8848 24.0165 89.3737 24.5276 89.3737 25.1643V28.2581C89.3737 28.8948 88.8625 29.406 88.2258 29.406H79.7425C79.1148 29.406 78.5947 29.9171 78.5947 30.5538V39.0371C78.5947 39.6738 78.0835 40.185 77.4468 40.185H74.353C73.7253 40.185 73.2052 39.6738 73.2052 39.0371V35.9433C73.2052 35.3156 72.694 34.7955 72.0573 34.7955H68.9635C68.3268 34.7955 67.8157 34.2843 67.8157 33.6476V30.5538C67.8157 29.9171 67.3045 29.406 66.6678 29.406H63.574C62.9373 29.406 62.4262 29.9171 62.4262 30.5538V44.4266C62.4262 45.0633 62.9373 45.5745 63.574 45.5745ZM100.171 29.406V39.0371C100.171 39.6738 100.682 40.185 101.318 40.185H104.412C105.049 40.185 105.56 40.6961 105.56 41.3328V55.2056C105.56 55.8423 105.049 56.3535 104.412 56.3535H101.318C100.682 56.3535 100.171 55.8423 100.171 55.2056V41.3328C100.171 40.7051 99.6594 40.185 99.0227 40.185H95.9289C95.3012 40.185 94.7811 40.6961 94.7811 41.3328V60.5951C94.7811 61.2318 94.2699 61.743 93.6332 61.743H90.5394C89.9027 61.743 89.3916 62.2541 89.3916 62.8908V65.9936C89.3916 66.6213 89.9027 67.1414 90.5394 67.1414H99.0227C99.6594 67.1414 100.171 66.6303 100.171 65.9936V62.8908C100.171 62.2631 100.682 61.743 101.318 61.743H104.412C105.049 61.743 105.56 62.2541 105.56 62.8908V65.9936C105.56 66.6213 105.049 67.1414 104.412 67.1414H101.318C100.682 67.1414 100.171 67.6526 100.171 68.2893V71.3831C100.171 72.0198 100.682 72.5309 101.318 72.5309H115.191C115.828 72.5309 116.339 72.0198 116.339 71.3831V62.8998C116.339 62.272 115.828 61.7519 115.191 61.7519H112.097C111.461 61.7519 110.95 61.2408 110.95 60.6041V30.5538C110.95 29.9171 110.438 29.406 109.802 29.406H106.708C106.071 29.406 105.56 28.8948 105.56 28.2581V25.1643C105.56 24.5366 105.049 24.0165 104.412 24.0165H101.318C100.682 24.0165 100.171 24.5276 100.171 25.1643V29.406ZM106.699 24.0165H109.793C110.429 24.0165 110.941 23.5053 110.941 22.8686V19.7748C110.941 19.1381 110.429 18.627 109.793 18.627H106.699C106.062 18.627 105.551 19.1381 105.551 19.7748V22.8686C105.551 23.5053 106.062 24.0165 106.699 24.0165ZM95.92 24.0165H99.0138C99.6505 24.0165 100.162 23.5053 100.162 22.8686V19.7748C100.162 19.1381 99.6505 18.627 99.0138 18.627H95.92C95.2922 18.627 94.7721 19.1381 94.7721 19.7748V22.8686C94.7721 23.5053 95.2833 24.0165 95.92 24.0165ZM63.6009 24.0165H72.0842C72.7119 24.0165 73.2321 23.5053 73.2321 22.8686V19.7748C73.2321 19.1381 72.7209 18.627 72.0842 18.627H63.6009C62.9642 18.627 62.4531 19.1381 62.4531 19.7748V22.8686C62.4531 23.5053 62.9642 24.0165 63.6009 24.0165Z" fill="white"/>
</svg>
