<svg width="21" height="37" viewBox="0 0 21 37" fill="none" xmlns="http://www.w3.org/2000/svg">
<path d="M15.4902 1.64819C14.4908 2.38965 13.5793 3.24278 12.774 4.18913C10.3539 7.03299 8.89355 10.7187 8.89355 14.7455C8.89355 21.9857 13.6149 28.1233 20.1467 30.2474" stroke="#3DFA52" stroke-width="0.776079"/>
<path d="M4.66045 0.463837L7.20536 1.03719C9.50511 1.55531 10.9494 3.83964 10.4313 6.13939L9.85794 8.6843L7.31302 8.11095C5.01328 7.59283 3.56898 5.3085 4.0871 3.00875L4.66045 0.463837Z" stroke="#3DFA52" stroke-width="0.776079"/>
<path d="M1.34551 11.7214L3.94275 11.4772C6.2898 11.2566 8.37131 12.9804 8.59195 15.3274L8.8361 17.9246L6.23886 18.1688C3.89181 18.3894 1.8103 16.6656 1.58966 14.3186L1.34551 11.7214Z" stroke="#3DFA52" stroke-width="0.776079"/>
<path d="M2.33148 24.388L4.28302 22.6569C6.04656 21.0925 8.74436 21.254 10.3087 23.0175L12.0398 24.9691L10.0883 26.7002C8.32476 28.2646 5.62697 28.1031 4.06261 26.3395L2.33148 24.388Z" stroke="#3DFA52" stroke-width="0.776079"/>
<path d="M9.41528 33.0393L10.5971 30.7137C11.665 28.612 14.2344 27.7741 16.3361 28.842L18.6617 30.0238L17.4799 32.3495C16.412 34.4511 13.8426 35.289 11.7409 34.2211L9.41528 33.0393Z" stroke="#3DFA52" stroke-width="0.776079"/>
</svg>
