<svg width="155" height="153" viewBox="0 0 155 153" fill="none" xmlns="http://www.w3.org/2000/svg">
<g id="correct">
<path id="Vector" d="M86.5995 10.3701C86.1722 12.2739 86.4286 13.9083 87.3722 15.2698C88.3158 16.6312 89.8113 17.5388 91.8551 17.9961C92.61 18.1663 93.3541 18.2124 94.0805 18.145C94.8069 18.0741 95.4905 17.9181 96.1279 17.6771C96.7653 17.436 97.3421 17.1275 97.8584 16.7553C98.3747 16.383 98.802 15.9647 99.1367 15.5073L102.715 19.3753C102.149 20.017 101.458 20.6055 100.636 21.1444C99.8132 21.6833 98.8874 22.1159 97.8584 22.442C96.8258 22.7682 95.6864 22.9596 94.4402 23.0057C93.1939 23.0518 91.8444 22.9171 90.3988 22.5945C88.5294 22.1797 86.8951 21.5557 85.4922 20.7332C84.0892 19.9106 82.9605 18.9144 82.1024 17.7444C81.2443 16.578 80.671 15.2591 80.3826 13.7878C80.0942 12.3165 80.1404 10.7282 80.525 9.02284C80.9096 7.31752 81.5576 5.86392 82.4691 4.66204C83.3807 3.46017 84.4916 2.52065 85.7984 1.84703C87.1051 1.17341 88.5935 0.765693 90.2599 0.627424C91.9263 0.489155 93.7031 0.627424 95.5938 1.04932C96.9291 1.34713 98.1041 1.77258 99.126 2.32565C100.144 2.87873 101.031 3.51335 101.782 4.22596C102.534 4.93858 103.146 5.71147 103.627 6.53754C104.107 7.36715 104.463 8.18968 104.698 9.00865L99.8061 10.987C99.6921 10.4516 99.4963 9.90209 99.215 9.33837C98.9337 8.77466 98.5634 8.25704 98.1112 7.78551C97.6554 7.31397 97.1142 6.88853 96.4875 6.51627C95.8573 6.144 95.1345 5.86747 94.312 5.68311C93.3791 5.47393 92.4889 5.42784 91.645 5.54129C90.8011 5.65474 90.0427 5.9171 89.3662 6.32482C88.6896 6.73253 88.1128 7.27852 87.6321 7.96277C87.1514 8.64703 86.806 9.45183 86.5995 10.3843V10.3701Z" fill="white"/>
<path id="Vector_2" d="M111.289 32.4684C110.004 31.4898 108.878 30.3766 107.917 29.1286C106.952 27.8807 106.272 26.5476 105.87 25.1259C105.467 23.7078 105.41 22.2223 105.699 20.6694C105.987 19.1165 106.731 17.5566 107.938 15.9895C109.142 14.4225 110.459 13.2951 111.887 12.6108C113.315 11.9266 114.775 11.5897 116.263 11.5933C117.752 11.5968 119.226 11.8982 120.689 12.4974C122.149 13.0965 123.524 13.8836 124.809 14.8621C126.094 15.8406 127.22 16.9539 128.181 18.2018C129.146 19.4498 129.822 20.7864 130.218 22.2152C130.613 23.644 130.666 25.133 130.378 26.6859C130.089 28.2388 129.345 29.7987 128.138 31.3658C126.931 32.9328 125.617 34.0602 124.189 34.7445C122.762 35.4287 121.305 35.762 119.824 35.7478C118.343 35.7336 116.872 35.4287 115.409 34.8296C113.945 34.2304 112.574 33.4398 111.289 32.4648V32.4684ZM114.134 28.7635C114.949 29.3839 115.768 29.8093 116.598 30.0398C117.424 30.2702 118.229 30.3234 119.009 30.2064C119.788 30.0859 120.536 29.8058 121.248 29.3626C121.96 28.9195 122.594 28.338 123.15 27.6183C123.716 26.8809 124.125 26.1044 124.375 25.2961C124.624 24.4878 124.706 23.6865 124.627 22.8959C124.545 22.1053 124.286 21.343 123.844 20.6091C123.402 19.8753 122.776 19.1981 121.96 18.5776C121.145 17.9572 120.326 17.5318 119.496 17.3013C118.667 17.0709 117.862 17.0212 117.075 17.1489C116.288 17.2765 115.533 17.5672 114.814 18.021C114.095 18.4748 113.45 19.0705 112.884 19.8079C112.332 20.5276 111.934 21.2898 111.691 22.0911C111.449 22.8924 111.371 23.683 111.46 24.4665C111.549 25.2465 111.812 26.0052 112.25 26.7391C112.688 27.473 113.319 28.1501 114.134 28.7706V28.7635Z" fill="white"/>
<path id="Vector_3" d="M129.637 55.1907C129.858 54.5844 130.168 54.0491 130.577 53.5775C130.983 53.106 131.403 52.6593 131.838 52.2374C132.269 51.8155 132.685 51.4042 133.077 51.0036C133.469 50.603 133.775 50.1634 133.999 49.6883C134.22 49.2097 134.323 48.6885 134.305 48.1212C134.288 47.554 134.074 46.8875 133.668 46.1287L131.984 42.9734L125.073 46.6286L122.217 41.2787L141.146 31.2666L146.661 41.6049C148.295 44.6716 149.011 47.1108 148.808 48.9296C148.605 50.7448 147.615 52.124 145.846 53.0599C144.98 53.5173 144.158 53.7406 143.378 53.73C142.598 53.7194 141.861 53.535 141.17 53.184C140.48 52.8295 139.817 52.3331 139.191 51.6879C138.564 51.0426 137.984 50.3229 137.453 49.5217C138.001 50.6455 138.286 51.578 138.311 52.326C138.333 53.0706 138.201 53.7761 137.912 54.4462C137.652 55.0701 137.293 55.6409 136.83 56.155C136.367 56.6691 135.883 57.169 135.367 57.6618C134.854 58.1511 134.352 58.6474 133.86 59.1544C133.369 59.6578 132.967 60.2251 132.657 60.8526L129.641 55.2013L129.637 55.1907ZM137.859 45.7175C139.087 48.022 140.497 48.7523 142.089 47.9121C143.638 47.0931 143.798 45.5296 142.57 43.2251L140.131 38.6551L135.424 41.1475L137.863 45.7175H137.859Z" fill="white"/>
<path id="Vector_4" d="M133.832 77.9696C134.277 77.5051 134.783 77.14 135.349 76.8741C135.912 76.6082 136.478 76.3671 137.044 76.1579C137.61 75.9487 138.155 75.7395 138.678 75.5304C139.198 75.3247 139.661 75.0447 140.06 74.7008C140.459 74.3533 140.765 73.9172 140.978 73.389C141.192 72.8607 141.267 72.1694 141.206 71.3078L140.953 67.7448L133.145 68.2943L132.714 62.253L154.092 60.7427L154.926 72.4211C155.171 75.8849 154.833 78.4057 153.904 79.9833C152.978 81.561 151.511 82.4226 149.513 82.5644C148.534 82.6353 147.694 82.5041 146.985 82.1815C146.277 81.8553 145.679 81.3908 145.191 80.7881C144.703 80.1854 144.301 79.4622 143.991 78.6219C143.677 77.7781 143.442 76.8847 143.286 75.9416C143.328 77.1896 143.211 78.1575 142.926 78.8524C142.645 79.5437 142.235 80.1358 141.698 80.6286C141.206 81.0966 140.644 81.4724 140.013 81.7525C139.383 82.0361 138.732 82.2985 138.066 82.5395C137.396 82.7806 136.734 83.0324 136.079 83.2947C135.424 83.5571 134.826 83.9116 134.288 84.3583L133.832 77.9767V77.9696ZM145.205 72.6267C145.39 75.229 146.38 76.4663 148.178 76.3423C149.93 76.2182 150.71 74.8567 150.525 72.2509L150.158 67.0924L144.838 67.4682L145.205 72.6303V72.6267Z" fill="white"/>
<path id="Vector_5" d="M133.664 85.7125L153.925 92.6721L147.469 111.299L142.879 109.722L147.352 96.8201L143.894 95.6324L140.415 105.669L136.278 104.248L139.757 94.2108L136.267 93.0124L131.574 106.559L126.985 104.982L133.664 85.709V85.7125Z" fill="white"/>
<path id="Vector_6" d="M131.087 116.681C129.627 115.38 128.071 114.806 126.415 114.962C124.763 115.118 123.235 115.972 121.836 117.525C121.32 118.099 120.914 118.72 120.618 119.386C120.323 120.053 120.127 120.723 120.027 121.397C119.927 122.07 119.913 122.719 119.988 123.35C120.063 123.981 120.219 124.556 120.458 125.073L115.32 126.296C115.035 125.492 114.853 124.602 114.786 123.627C114.715 122.652 114.786 121.634 115.003 120.578C115.22 119.521 115.612 118.44 116.178 117.33C116.748 116.224 117.524 115.118 118.514 114.022C119.792 112.604 121.134 111.484 122.541 110.668C123.947 109.853 125.375 109.357 126.817 109.179C128.259 109.002 129.694 109.151 131.126 109.619C132.557 110.087 133.924 110.902 135.231 112.069C136.538 113.235 137.496 114.508 138.105 115.887C138.714 117.266 138.995 118.692 138.945 120.156C138.895 121.62 138.528 123.113 137.838 124.626C137.147 126.14 136.157 127.619 134.864 129.055C133.953 130.069 133.006 130.884 132.023 131.501C131.04 132.118 130.054 132.575 129.061 132.88C128.067 133.185 127.091 133.341 126.134 133.355C125.172 133.366 124.279 133.277 123.445 133.082L124.1 127.863C124.627 128.026 125.204 128.122 125.835 128.154C126.465 128.182 127.099 128.119 127.736 127.952C128.373 127.789 129.007 127.523 129.641 127.161C130.275 126.796 130.873 126.303 131.435 125.676C132.073 124.967 132.55 124.215 132.86 123.428C133.173 122.641 133.312 121.854 133.287 121.067C133.259 120.28 133.063 119.511 132.7 118.762C132.336 118.011 131.795 117.316 131.083 116.681H131.087Z" fill="white"/>
<path id="Vector_7" d="M104.987 125.311L112.283 140.056L118.966 136.776L121.142 141.173L102.313 150.408L100.137 146.012L106.853 142.719L99.557 127.973L104.983 125.311H104.987Z" fill="white"/>
<path id="Vector_8" d="M90.5802 130.93L91.4632 135.787L85.4101 136.879L84.527 132.022L90.5802 130.93ZM90.1671 139.549L93.2293 146.087L94.294 151.947L88.4402 153L87.3756 147.14L87.9453 139.946L90.1671 139.545V139.549Z" fill="white"/>
<path id="Vector_9" d="M68.0627 142.641C68.5007 140.737 68.2515 139.106 67.315 137.737C66.3785 136.372 64.8902 135.454 62.8464 134.99C62.0915 134.816 61.3509 134.763 60.6209 134.83C59.8945 134.897 59.2073 135.05 58.57 135.287C57.9326 135.525 57.3522 135.83 56.8324 136.202C56.3161 136.571 55.8852 136.986 55.547 137.443L51.9898 133.557C52.5595 132.919 53.2539 132.334 54.08 131.799C54.9025 131.267 55.8318 130.838 56.8644 130.515C57.897 130.193 59.04 130.012 60.2862 129.969C61.536 129.93 62.882 130.072 64.324 130.402C66.1898 130.827 67.8206 131.458 69.22 132.288C70.6193 133.118 71.7445 134.121 72.5955 135.295C73.4465 136.468 74.0126 137.79 74.2939 139.262C74.5752 140.733 74.5183 142.321 74.1266 144.023C73.7349 145.725 73.0798 147.175 72.1611 148.377C71.2424 149.575 70.1279 150.508 68.8176 151.174C67.5073 151.841 66.0189 152.241 64.3525 152.373C62.6861 152.504 60.9093 152.355 59.0186 151.922C57.6869 151.617 56.5119 151.185 55.4935 150.628C54.4752 150.068 53.5957 149.43 52.848 148.714C52.1002 147.998 51.4913 147.221 51.0142 146.392C50.5406 145.562 50.1846 144.736 49.9531 143.913L54.8562 141.96C54.9666 142.495 55.1624 143.048 55.4401 143.612C55.7214 144.176 56.0846 144.697 56.5368 145.172C56.989 145.647 57.5267 146.072 58.1534 146.448C58.7801 146.824 59.5029 147.108 60.3254 147.292C61.2583 147.505 62.1485 147.558 62.9888 147.448C63.8327 147.338 64.5946 147.079 65.2712 146.679C65.9477 146.275 66.5317 145.732 67.0123 145.051C67.4966 144.371 67.8455 143.566 68.0592 142.637L68.0627 142.641Z" fill="white"/>
<path id="Vector_10" d="M43.4903 120.411C44.7722 121.397 45.8902 122.517 46.8445 123.768C47.8023 125.02 48.4788 126.36 48.8705 127.782C49.2657 129.203 49.312 130.689 49.0165 132.238C48.7209 133.788 47.9661 135.344 46.7519 136.908C45.5413 138.471 44.2167 139.588 42.7853 140.265C41.3539 140.942 39.894 141.272 38.4057 141.261C36.9173 141.247 35.4432 140.939 33.9868 140.332C32.527 139.726 31.1597 138.928 29.8778 137.946C28.5995 136.961 27.4779 135.84 26.5237 134.589C25.5658 133.337 24.8929 131.994 24.5083 130.565C24.1202 129.133 24.0775 127.644 24.373 126.094C24.6685 124.545 25.4234 122.988 26.6376 121.425C27.8482 119.861 29.1728 118.745 30.6042 118.068C32.0356 117.39 33.4919 117.064 34.9732 117.085C36.4544 117.107 37.925 117.422 39.3813 118.029C40.8412 118.635 42.2085 119.432 43.4903 120.415V120.411ZM40.6275 124.102C39.8157 123.478 38.9967 123.049 38.1706 122.815C37.3446 122.581 36.5399 122.52 35.7601 122.637C34.9803 122.754 34.2325 123.031 33.5168 123.471C32.8011 123.91 32.1638 124.488 31.6083 125.208C31.0386 125.945 30.6256 126.715 30.3728 127.527C30.12 128.335 30.0309 129.136 30.1093 129.927C30.1876 130.717 30.444 131.48 30.8784 132.217C31.3163 132.954 31.9395 133.635 32.7477 134.259C33.5596 134.883 34.3785 135.312 35.2046 135.546C36.0307 135.78 36.839 135.837 37.6259 135.709C38.4128 135.585 39.1712 135.298 39.8905 134.851C40.6133 134.405 41.2578 133.812 41.831 133.075C42.3865 132.355 42.7889 131.597 43.0381 130.799C43.2838 130.001 43.3657 129.207 43.2802 128.427C43.1948 127.644 42.9348 126.885 42.5004 126.147C42.066 125.41 41.4394 124.729 40.6311 124.105L40.6275 124.102Z" fill="white"/>
<path id="Vector_11" d="M25.2598 97.5896C25.039 98.1923 24.7221 98.7276 24.3127 99.1991C23.9032 99.6671 23.483 100.114 23.0451 100.532C22.6107 100.951 22.1941 101.362 21.7988 101.759C21.4036 102.156 21.0938 102.596 20.8695 103.071C20.6452 103.546 20.5419 104.07 20.5561 104.638C20.574 105.205 20.7805 105.872 21.1828 106.634L22.8492 109.8L29.7819 106.18L32.6091 111.544L13.6271 121.457L8.16498 111.087C6.54487 108.013 5.84341 105.567 6.05706 103.751C6.2707 101.936 7.26769 100.564 9.04091 99.6352C9.90971 99.1814 10.7322 98.9652 11.512 98.9793C12.2918 98.9935 13.0253 99.1814 13.7161 99.5395C14.4069 99.8976 15.062 100.397 15.6887 101.046C16.3118 101.695 16.8886 102.418 17.4121 103.22C16.8708 102.092 16.5896 101.156 16.5682 100.412C16.5504 99.6671 16.6857 98.9616 16.9777 98.2951C17.2412 97.6711 17.6043 97.1038 18.0672 96.5933C18.5301 96.0828 19.0215 95.5829 19.5378 95.0972C20.0541 94.6115 20.5597 94.1151 21.0546 93.6152C21.5496 93.1118 21.9555 92.5481 22.2688 91.9241L25.2527 97.5896H25.2598ZM16.9883 107.02C15.7706 104.709 14.3641 103.971 12.7725 104.804C11.22 105.616 11.0491 107.176 12.2669 109.488L14.681 114.068L19.4025 111.601L16.9883 107.02Z" fill="white"/>
<path id="Vector_12" d="M21.1862 74.786C20.7376 75.2469 20.2284 75.612 19.6658 75.8744C19.0997 76.1403 18.5335 76.3743 17.9638 76.5835C17.3941 76.7926 16.8493 76.9983 16.3259 77.2039C15.8025 77.4095 15.3431 77.6825 14.9408 78.0264C14.542 78.3703 14.2322 78.8064 14.015 79.3311C13.7978 79.8558 13.7195 80.5507 13.7764 81.4087L14.0114 84.9753L21.8236 84.4648L22.2224 90.5096L0.836919 91.9065L0.0678123 80.2245C-0.160071 76.7607 0.192436 74.2435 1.1289 72.6694C2.06535 71.0952 3.53235 70.2443 5.53346 70.1132C6.51264 70.0494 7.35296 70.1805 8.06154 70.5103C8.77012 70.84 9.36475 71.308 9.849 71.9107C10.3333 72.5169 10.7321 73.2402 11.0383 74.084C11.3445 74.9278 11.5759 75.8212 11.729 76.7678C11.6934 75.5198 11.8181 74.552 12.1029 73.8606C12.3878 73.1728 12.8008 72.5807 13.3385 72.0915C13.8334 71.627 14.396 71.2548 15.0298 70.9747C15.6636 70.6946 16.3116 70.4358 16.981 70.1983C17.6505 69.9607 18.3127 69.7125 18.9715 69.4537C19.6266 69.1949 20.2284 68.8439 20.7696 68.3972L21.1898 74.7824L21.1862 74.786ZM9.78491 80.0685C9.614 77.4662 8.63125 76.2218 6.83311 76.3388C5.08125 76.4523 4.29434 77.8137 4.46525 80.416L4.80708 85.578L10.1267 85.2306L9.78847 80.0685H9.78491Z" fill="white"/>
<path id="Vector_13" d="M21.3926 67.0568L1.17148 59.9909L7.72669 41.3955L12.3057 42.9945L7.76586 55.8712L11.2162 57.0766L14.7484 47.0574L18.8787 48.5004L15.3465 58.5196L18.8289 59.7357L23.5931 46.2137L28.1721 47.8126L21.3926 67.0497V67.0568Z" fill="white"/>
<path id="Vector_14" d="M24.1379 36.0988C25.5907 37.4071 27.1432 37.9885 28.7989 37.8432C30.4546 37.6978 31.9857 36.8505 33.3921 35.3011C33.912 34.7303 34.3215 34.1099 34.617 33.4469C34.9161 32.7804 35.1155 32.1139 35.2188 31.4402C35.322 30.7702 35.3398 30.1178 35.2651 29.4867C35.1939 28.8557 35.0407 28.2813 34.8022 27.7637L39.9474 26.5689C40.2287 27.3737 40.4031 28.2671 40.4672 29.2421C40.5313 30.2206 40.453 31.2346 40.2322 32.2911C40.0114 33.3476 39.6127 34.4254 39.0394 35.5316C38.4661 36.6377 37.6828 37.7368 36.6858 38.8288C35.4004 40.2434 34.0544 41.3531 32.6408 42.1614C31.2273 42.9697 29.803 43.459 28.3573 43.6256C26.9153 43.7923 25.4768 43.6398 24.0489 43.1647C22.6211 42.6897 21.2573 41.8636 19.9577 40.6936C18.658 39.5201 17.7038 38.2438 17.1056 36.8575C16.5038 35.4749 16.2297 34.0496 16.2866 32.5854C16.3436 31.1212 16.721 29.6321 17.4189 28.1182C18.1168 26.6044 19.1174 25.133 20.417 23.7043C21.3357 22.6938 22.2864 21.8855 23.2727 21.2721C24.259 20.6623 25.2489 20.205 26.2423 19.9072C27.2357 19.6094 28.2114 19.4569 29.1727 19.4498C30.1341 19.4427 31.0279 19.5385 31.8611 19.737L31.1774 24.9522C30.654 24.7856 30.0736 24.6863 29.4434 24.6509C28.8131 24.619 28.1793 24.6828 27.5419 24.8423C26.9046 25.0019 26.2672 25.2642 25.6334 25.6223C24.9996 25.9839 24.3979 26.4767 23.8317 27.0972C23.1908 27.8027 22.7101 28.5508 22.3932 29.3378C22.0763 30.1249 21.9303 30.912 21.9552 31.6955C21.9766 32.4826 22.1689 33.2519 22.5321 34.0035C22.8917 34.7551 23.4258 35.4536 24.1379 36.0917V36.0988Z" fill="white"/>
<path id="Vector_15" d="M50.2736 27.6077L43.0526 12.8236L36.3514 16.0676L34.1972 11.6607L53.0759 2.52075L55.2301 6.92763L48.4969 10.1858L55.7179 24.97L50.2772 27.6042L50.2736 27.6077Z" fill="white"/>
<path id="Vector_16" d="M65.1819 13.444L62.1518 6.88863L61.1192 1.02106L66.9765 0L68.0091 5.86757L67.4002 13.0576L65.1784 13.444H65.1819ZM64.7226 22.0592L63.8645 17.1985L69.9248 16.1385L70.7793 20.9992L64.719 22.0592H64.7226Z" fill="white"/>
</g>
</svg>
