<svg width="231" height="70" viewBox="0 0 231 70" fill="none" xmlns="http://www.w3.org/2000/svg">
<rect x="0.5" width="230" height="70" rx="35" fill="white"/>
<path d="M58.4393 36.1899C58.3948 31.4618 62.4878 29.1615 62.675 29.0544C60.3569 25.8226 56.764 25.3811 55.5014 25.3458C52.4838 25.0422 49.5567 27.0725 48.0195 27.0725C46.4517 27.0725 44.0845 25.3752 41.5333 25.4251C38.2503 25.4735 35.179 27.2911 33.4945 30.1136C30.0182 35.8687 32.6108 44.3259 35.9414 48.9778C37.6075 51.256 39.5543 53.7998 42.1024 53.7103C44.5954 53.6121 45.5266 52.1905 48.535 52.1905C51.5158 52.1905 52.3903 53.7103 54.9891 53.6531C57.6646 53.6121 59.349 51.3646 60.9568 49.0658C62.8821 46.4545 63.6553 43.8829 63.686 43.7509C63.6231 43.7303 58.4899 41.857 58.4393 36.1899Z" fill="#212121"/>
<path d="M53.5301 22.2857C54.8709 20.6822 55.7883 18.5008 55.5337 16.2871C53.593 16.3693 51.166 17.5707 49.7684 19.139C48.5319 20.5209 47.4274 22.7859 47.7127 24.916C49.8927 25.0715 52.131 23.8642 53.5301 22.2857Z" fill="#212121"/>
<path d="M85.0608 18.8872C85.0608 20.6139 84.5193 21.9136 83.4377 22.7865C82.436 23.5919 81.0123 23.9953 79.1683 23.9953C78.2539 23.9953 77.4715 23.9572 76.8165 23.8809V14.4466C77.671 14.3146 78.5914 14.2471 79.5856 14.2471C81.3421 14.2471 82.6661 14.6124 83.5589 15.3429C84.5592 16.1688 85.0608 17.3498 85.0608 18.8872ZM83.3656 18.9297C83.3656 17.8104 83.0557 16.9522 82.436 16.3537C81.8162 15.7566 80.911 15.4573 79.719 15.4573C79.2128 15.4573 78.7817 15.4896 78.4242 15.5571V22.7293C78.6221 22.7586 78.9842 22.7718 79.5104 22.7718C80.7408 22.7718 81.6904 22.4447 82.3593 21.7904C83.0281 21.1361 83.3656 20.1826 83.3656 18.9297Z" fill="#212121"/>
<path d="M94.0493 20.3958C94.0493 21.4594 93.7318 22.3308 93.0967 23.0144C92.4308 23.7171 91.5487 24.0677 90.4472 24.0677C89.3856 24.0677 88.5403 23.7318 87.9098 23.057C87.2808 22.3836 86.9663 21.5342 86.9663 20.5103C86.9663 19.4394 87.29 18.5606 87.9405 17.8785C88.5909 17.1963 89.4654 16.8545 90.5669 16.8545C91.6285 16.8545 92.4815 17.1904 93.1273 17.8638C93.741 18.5181 94.0493 19.3631 94.0493 20.3958ZM92.3818 20.4457C92.3818 19.8076 92.2376 19.2604 91.9507 18.8041C91.6132 18.2525 91.133 17.9767 90.5086 17.9767C89.8627 17.9767 89.3718 18.2525 89.0343 18.8041C88.7459 19.2604 88.6032 19.8164 88.6032 20.4736C88.6032 21.1117 88.7474 21.6589 89.0343 22.1152C89.3825 22.6668 89.8673 22.9426 90.4933 22.9426C91.1069 22.9426 91.5886 22.6624 91.9353 22.1005C92.2329 21.6355 92.3818 21.0839 92.3818 20.4457Z" fill="#212121"/>
<path d="M106.101 16.9951L103.839 23.9106H102.366L101.428 20.9076C101.191 20.158 100.997 19.4127 100.847 18.6734H100.818C100.678 19.4333 100.485 20.177 100.236 20.9076L99.2407 23.9106H97.7511L95.6233 16.9951H97.2755L98.0932 20.2827C98.2911 21.0602 98.4537 21.801 98.5841 22.5022H98.6133C98.7329 21.9242 98.9308 21.1878 99.2101 20.2973L100.236 16.9966H101.547L102.53 20.2269C102.768 21.0147 102.961 21.7731 103.11 22.5037H103.154C103.263 21.7922 103.427 21.0338 103.645 20.2269L104.523 16.9966H106.101V16.9951Z" fill="#212121"/>
<path d="M114.436 23.9103H112.828V19.9494C112.828 18.7288 112.344 18.1186 111.371 18.1186C110.894 18.1186 110.509 18.2858 110.21 18.6217C109.914 18.9577 109.763 19.3538 109.763 19.8071V23.9088H108.156V18.9709C108.156 18.3636 108.136 17.7049 108.097 16.9919H109.51L109.585 18.0731H109.63C109.817 17.7371 110.096 17.4599 110.463 17.2384C110.899 16.9802 111.386 16.8496 111.92 16.8496C112.595 16.8496 113.157 17.0579 113.603 17.476C114.159 17.988 114.436 18.7523 114.436 19.7675V23.9103Z" fill="#212121"/>
<path d="M118.87 23.9108H117.264V13.8223H118.87V23.9108Z" fill="#212121"/>
<path d="M128.335 20.3958C128.335 21.4594 128.018 22.3308 127.383 23.0144C126.717 23.7171 125.833 24.0677 124.733 24.0677C123.67 24.0677 122.825 23.7318 122.196 23.057C121.567 22.3836 121.252 21.5342 121.252 20.5103C121.252 19.4394 121.576 18.5606 122.226 17.8785C122.877 17.1963 123.751 16.8545 124.851 16.8545C125.915 16.8545 126.766 17.1904 127.413 17.8638C128.027 18.5181 128.335 19.3631 128.335 20.3958ZM126.666 20.4457C126.666 19.8076 126.522 19.2604 126.235 18.8041C125.899 18.2525 125.417 17.9767 124.795 17.9767C124.147 17.9767 123.656 18.2525 123.32 18.8041C123.032 19.2604 122.889 19.8164 122.889 20.4736C122.889 21.1117 123.033 21.6589 123.32 22.1152C123.669 22.6668 124.153 22.9426 124.779 22.9426C125.393 22.9426 125.873 22.6624 126.22 22.1005C126.519 21.6355 126.666 21.0839 126.666 20.4457Z" fill="#212121"/>
<path d="M136.116 23.9108H134.673L134.553 23.1142H134.509C134.015 23.7494 133.311 24.0677 132.396 24.0677C131.714 24.0677 131.161 23.858 130.746 23.4413C130.368 23.0628 130.179 22.5919 130.179 22.033C130.179 21.188 130.548 20.544 131.289 20.098C132.028 19.6521 133.068 19.4335 134.407 19.4438V19.3147C134.407 18.4036 133.907 17.9489 132.906 17.9489C132.192 17.9489 131.563 18.1205 131.02 18.4609L130.693 17.4516C131.365 17.054 132.195 16.8545 133.174 16.8545C135.064 16.8545 136.012 17.808 136.012 19.7151V22.2619C136.012 22.9528 136.047 23.5029 136.116 23.9108ZM134.447 21.5342V20.4677C132.674 20.4384 131.787 20.9034 131.787 21.8614C131.787 22.2223 131.888 22.4922 132.096 22.6726C132.303 22.8531 132.567 22.9426 132.881 22.9426C133.234 22.9426 133.564 22.8355 133.864 22.6227C134.167 22.4086 134.352 22.1372 134.421 21.8042C134.438 21.7293 134.447 21.6384 134.447 21.5342Z" fill="#212121"/>
<path d="M145.252 23.9108H143.825L143.75 22.8003H143.706C143.25 23.6453 142.474 24.0678 141.383 24.0678C140.512 24.0678 139.786 23.7407 139.211 23.0864C138.636 22.4321 138.349 21.5827 138.349 20.5397C138.349 19.4203 138.66 18.5137 139.286 17.8213C139.892 17.1758 140.634 16.8531 141.518 16.8531C142.489 16.8531 143.169 17.1656 143.555 17.792H143.586V13.8223H145.195V22.0477C145.195 22.7211 145.214 23.3416 145.252 23.9108ZM143.586 20.9944V19.8414C143.586 19.6419 143.571 19.4805 143.542 19.3573C143.451 18.9876 143.256 18.6766 142.96 18.4257C142.661 18.1749 142.301 18.0487 141.885 18.0487C141.285 18.0487 140.815 18.2761 140.47 18.7323C140.128 19.1886 139.955 19.771 139.955 20.4825C139.955 21.1661 140.119 21.7206 140.449 22.1475C140.797 22.6023 141.267 22.8297 141.854 22.8297C142.382 22.8297 142.804 22.6404 143.124 22.2605C143.434 21.9099 143.586 21.4874 143.586 20.9944Z" fill="#212121"/>
<path d="M159.002 20.3958C159.002 21.4594 158.685 22.3308 158.05 23.0144C157.384 23.7171 156.503 24.0677 155.4 24.0677C154.34 24.0677 153.495 23.7318 152.863 23.057C152.234 22.3836 151.919 21.5342 151.919 20.5103C151.919 19.4394 152.243 18.5606 152.894 17.8785C153.544 17.1963 154.418 16.8545 155.521 16.8545C156.582 16.8545 157.436 17.1904 158.08 17.8638C158.694 18.5181 159.002 19.3631 159.002 20.3958ZM157.336 20.4457C157.336 19.8076 157.192 19.2604 156.905 18.8041C156.566 18.2525 156.088 17.9767 155.462 17.9767C154.817 17.9767 154.326 18.2525 153.987 18.8041C153.699 19.2604 153.556 19.8164 153.556 20.4736C153.556 21.1117 153.7 21.6589 153.987 22.1152C154.336 22.6668 154.82 22.9426 155.446 22.9426C156.06 22.9426 156.543 22.6624 156.89 22.1005C157.186 21.6355 157.336 21.0839 157.336 20.4457Z" fill="#212121"/>
<path d="M167.647 23.9103H166.041V19.9494C166.041 18.7288 165.556 18.1186 164.582 18.1186C164.105 18.1186 163.72 18.2858 163.422 18.6217C163.124 18.9577 162.976 19.3538 162.976 19.8071V23.9088H161.366V18.9709C161.366 18.3636 161.348 17.7049 161.31 16.9919H162.721L162.796 18.0731H162.841C163.029 17.7371 163.309 17.4599 163.674 17.2384C164.111 16.9802 164.597 16.8496 165.133 16.8496C165.806 16.8496 166.368 17.0579 166.814 17.476C167.371 17.988 167.647 18.7523 167.647 19.7675V23.9103Z" fill="#212121"/>
<path d="M178.467 18.1463H176.697V21.5058C176.697 22.3596 177.011 22.7864 177.634 22.7864C177.923 22.7864 178.162 22.763 178.351 22.7146L178.392 23.8808C178.075 23.9953 177.657 24.0525 177.143 24.0525C176.508 24.0525 176.014 23.8676 175.657 23.4979C175.298 23.1283 175.12 22.5063 175.12 21.6334V18.1463H174.063V16.9947H175.12V15.7272L176.695 15.2725V16.9933H178.466V18.1463H178.467Z" fill="#212121"/>
<path d="M186.979 23.9108H185.369V19.9793C185.369 18.7397 184.885 18.1191 183.914 18.1191C183.168 18.1191 182.659 18.4785 182.379 19.1974C182.332 19.3485 182.304 19.5333 182.304 19.7504V23.9094H180.698V13.8223H182.304V17.99H182.335C182.841 17.2316 183.567 16.8531 184.507 16.8531C185.173 16.8531 185.724 17.0614 186.161 17.4795C186.706 18.0003 186.979 18.7749 186.979 19.7988V23.9108Z" fill="#212121"/>
<path d="M195.758 20.1264C195.758 20.4022 195.737 20.634 195.699 20.8232H190.877C190.898 21.5069 191.128 22.0277 191.575 22.3885C191.983 22.7113 192.509 22.8726 193.153 22.8726C193.867 22.8726 194.517 22.7641 195.103 22.5455L195.355 23.6135C194.669 23.8981 193.862 24.0404 192.928 24.0404C191.808 24.0404 190.926 23.725 190.288 23.0942C189.646 22.4634 189.329 21.6169 189.329 20.5548C189.329 19.5117 189.625 18.6433 190.222 17.9509C190.845 17.2115 191.687 16.8418 192.75 16.8418C193.79 16.8418 194.58 17.2115 195.114 17.9509C195.545 18.5377 195.758 19.2638 195.758 20.1264ZM194.224 19.7289C194.237 19.2726 194.131 18.8795 193.913 18.5479C193.634 18.121 193.209 17.9068 192.633 17.9068C192.109 17.9068 191.681 18.1152 191.354 18.5333C191.087 18.8663 190.929 19.2638 190.877 19.7289H194.224Z" fill="#212121"/>
<path d="M94.0522 50.4418H90.5683L88.6598 44.7073H82.0263L80.2083 50.4418H76.8164L83.3886 30.9189H87.4479L94.0522 50.4418ZM88.0845 42.3014L86.3586 37.2036C86.1761 36.6828 85.834 35.4564 85.3292 33.5258H85.2679C85.0669 34.3561 84.7432 35.5825 84.2983 37.2036L82.6031 42.3014H88.0845Z" fill="#212121"/>
<path d="M110.954 43.2298C110.954 45.6239 110.277 47.5163 108.924 48.9056C107.712 50.1423 106.207 50.7599 104.411 50.7599C102.472 50.7599 101.079 50.0939 100.23 48.7618H100.169V56.1775H96.8982V40.9985C96.8982 39.4933 96.8568 37.9486 96.777 36.3642H99.6535L99.836 38.5955H99.8974C100.988 36.9143 102.643 36.0752 104.865 36.0752C106.601 36.0752 108.051 36.7309 109.211 38.0439C110.374 39.3583 110.954 41.0865 110.954 43.2298ZM107.622 43.3442C107.622 41.974 107.3 40.8444 106.652 39.9554C105.945 39.0283 104.995 38.5647 103.805 38.5647C102.998 38.5647 102.265 38.8229 101.609 39.3319C100.953 39.8454 100.523 40.5158 100.322 41.3461C100.221 41.7334 100.17 42.0503 100.17 42.2997V44.6469C100.17 45.6709 100.499 46.5349 101.155 47.2406C101.812 47.9462 102.665 48.2983 103.714 48.2983C104.946 48.2983 105.905 47.8435 106.591 46.9369C107.278 46.0288 107.622 44.8317 107.622 43.3442Z" fill="#212121"/>
<path d="M127.886 43.2298C127.886 45.6239 127.209 47.5163 125.855 48.9056C124.644 50.1423 123.139 50.7599 121.343 50.7599C119.404 50.7599 118.011 50.0939 117.164 48.7618H117.102V56.1775H113.832V40.9985C113.832 39.4933 113.79 37.9486 113.71 36.3642H116.587L116.769 38.5955H116.831C117.92 36.9143 119.575 36.0752 121.798 36.0752C123.533 36.0752 124.983 36.7309 126.146 38.0439C127.304 39.3583 127.886 41.0865 127.886 43.2298ZM124.554 43.3442C124.554 41.974 124.23 40.8444 123.583 39.9554C122.875 39.0283 121.929 38.5647 120.737 38.5647C119.928 38.5647 119.196 38.8229 118.54 39.3319C117.883 39.8454 117.455 40.5158 117.254 41.3461C117.155 41.7334 117.102 42.0503 117.102 42.2997V44.6469C117.102 45.6709 117.431 46.5349 118.084 47.2406C118.741 47.9447 119.594 48.2983 120.646 48.2983C121.878 48.2983 122.837 47.8435 123.523 46.9369C124.21 46.0288 124.554 44.8317 124.554 43.3442Z" fill="#212121"/>
<path d="M146.817 44.9669C146.817 46.6275 146.214 47.9787 145.004 49.0217C143.673 50.1616 141.822 50.7308 139.442 50.7308C137.245 50.7308 135.484 50.3259 134.151 49.5146L134.909 46.9077C136.345 47.7381 137.92 48.1547 139.637 48.1547C140.869 48.1547 141.828 47.8877 142.517 47.3566C143.202 46.8256 143.545 46.1126 143.545 45.2236C143.545 44.4314 143.262 43.764 142.696 43.2226C142.133 42.6813 141.193 42.1781 139.88 41.7131C136.305 40.4383 134.519 38.5708 134.519 36.115C134.519 34.5101 135.145 33.1942 136.399 32.1702C137.647 31.1448 139.313 30.6328 141.397 30.6328C143.255 30.6328 144.798 30.9424 146.03 31.56L145.212 34.1096C144.062 33.5111 142.761 33.2118 141.305 33.2118C140.154 33.2118 139.255 33.4832 138.611 34.0231C138.066 34.5057 137.793 35.094 137.793 35.7908C137.793 36.5624 138.105 37.2006 138.73 37.7023C139.275 38.1659 140.265 38.6676 141.701 39.2089C143.457 39.8852 144.747 40.6759 145.577 41.5825C146.404 42.4862 146.817 43.6173 146.817 44.9669Z" fill="#212121"/>
<path d="M157.631 38.7113H154.026V45.546C154.026 47.2844 154.661 48.1529 155.934 48.1529C156.519 48.1529 157.003 48.1045 157.387 48.0076L157.477 50.3827C156.833 50.613 155.985 50.7289 154.934 50.7289C153.642 50.7289 152.633 50.3519 151.904 49.5993C151.178 48.8453 150.813 47.5807 150.813 45.8042V38.7083H148.665V36.3611H150.813V33.7836L154.026 32.8564V36.3611H157.631V38.7113Z" fill="#212121"/>
<path d="M173.897 43.2865C173.897 45.4503 173.25 47.2269 171.958 48.6161C170.603 50.0464 168.805 50.7594 166.564 50.7594C164.404 50.7594 162.684 50.0743 161.402 48.7041C160.119 47.334 159.478 45.6044 159.478 43.5197C159.478 41.3383 160.138 39.5515 161.462 38.1623C162.782 36.7715 164.565 36.0762 166.806 36.0762C168.966 36.0762 170.705 36.7613 172.016 38.1329C173.271 39.4635 173.897 41.1813 173.897 43.2865ZM170.504 43.3877C170.504 42.0894 170.214 40.976 169.626 40.0473C168.94 38.9236 167.96 38.3632 166.69 38.3632C165.375 38.3632 164.376 38.9251 163.691 40.0473C163.103 40.9774 162.813 42.1085 162.813 43.4464C162.813 44.7447 163.103 45.8581 163.691 46.7853C164.398 47.909 165.386 48.4694 166.661 48.4694C167.909 48.4694 168.89 47.8973 169.597 46.756C170.2 45.8097 170.504 44.6845 170.504 43.3877Z" fill="#212121"/>
<path d="M184.529 39.1148C184.205 39.0576 183.86 39.0283 183.498 39.0283C182.347 39.0283 181.457 39.4434 180.831 40.2752C180.287 41.0087 180.014 41.9359 180.014 43.0552V50.4416H176.745L176.775 40.7975C176.775 39.175 176.734 37.6977 176.652 36.3657H179.501L179.621 39.0591H179.712C180.057 38.1334 180.601 37.3882 181.347 36.8292C182.076 36.3261 182.863 36.0752 183.711 36.0752C184.013 36.0752 184.286 36.0957 184.529 36.1324V39.1148Z" fill="#212121"/>
<path d="M199.156 42.7369C199.156 43.2973 199.118 43.7697 199.037 44.1555H189.225C189.263 45.5462 189.737 46.6098 190.648 47.3433C191.475 47.999 192.544 48.3276 193.858 48.3276C195.31 48.3276 196.636 48.1061 197.828 47.6616L198.34 49.8328C196.947 50.4137 195.303 50.7027 193.405 50.7027C191.122 50.7027 189.33 50.0602 188.026 48.7765C186.725 47.4929 186.073 45.7692 186.073 43.6068C186.073 41.4841 186.679 39.7163 187.893 38.3065C189.163 36.8014 190.88 36.0488 193.04 36.0488C195.162 36.0488 196.768 36.8014 197.859 38.3065C198.722 39.5022 199.156 40.9809 199.156 42.7369ZM196.038 41.9256C196.059 40.9985 195.846 40.1975 195.402 39.5212C194.836 38.6513 193.966 38.2171 192.796 38.2171C191.727 38.2171 190.857 38.641 190.193 39.4919C189.648 40.1682 189.324 40.9794 189.225 41.9242H196.038V41.9256Z" fill="#212121"/>
</svg>
