<svg width="243" height="75" viewBox="0 0 243 75" fill="none" xmlns="http://www.w3.org/2000/svg">
    <rect y="0.869141" width="242.714" height="73.8695" rx="36.9348" fill="white"/>
    <path d="M26.6473 18.5104C26.1717 18.9864 25.8965 19.7276 25.8965 20.6874V54.9236C25.8965 55.8834 26.1717 56.6245 26.6473 57.1006L26.7646 57.2051L46.8271 38.028V37.5752L26.7646 18.3981L26.6473 18.5104Z" fill="#161616"/>
    <path d="M55.9355 44.4229L49.2554 38.0273V37.5745L55.9436 31.1789L56.0933 31.2621L64.0139 35.5716C66.2743 36.7946 66.2743 38.8071 64.0139 40.0379L56.0933 44.3396L55.9355 44.4229Z" fill="#161616"/>
    <path d="M54.8792 45.5306L48.0412 38.9918L27.8613 58.2907C28.6121 59.0454 29.8364 59.1364 31.2287 58.3817L54.8792 45.5306Z" fill="#161616"/>
    <path d="M54.8792 30.0706L31.2287 17.2195C29.8364 16.4725 28.6121 16.5635 27.8613 17.3181L48.0412 36.6094L54.8792 30.0706Z" fill="#161616"/>
    <path d="M89.3842 21.5343C89.3842 22.827 88.9795 23.8623 88.1822 24.6344C87.2654 25.5497 86.0715 26.0103 84.6084 26.0103C83.21 26.0103 82.0161 25.542 81.0366 24.6189C80.0551 23.6823 79.5654 22.5329 79.5654 21.157C79.5654 19.7811 80.0551 18.6317 81.0366 17.7028C82.0161 16.772 83.21 16.3037 84.6084 16.3037C85.3045 16.3037 85.9683 16.4411 86.6017 16.6965C87.2331 16.9539 87.7471 17.3022 88.1194 17.7318L87.2735 18.5485C86.6239 17.815 85.7396 17.4532 84.6084 17.4532C83.5885 17.4532 82.7041 17.7938 81.9533 18.4807C81.2107 19.1696 80.8383 20.0617 80.8383 21.157C80.8383 22.2523 81.2107 23.1521 81.9533 23.841C82.7041 24.5202 83.5885 24.8686 84.6084 24.8686C85.691 24.8686 86.6017 24.5202 87.3201 23.8333C87.7936 23.3785 88.0628 22.7515 88.1336 21.9504H84.6084V20.8319H89.3114C89.368 21.0738 89.3842 21.3079 89.3842 21.5343Z" fill="#161616" stroke="#161616" stroke-width="0.0639497" stroke-miterlimit="10"/>
    <path d="M96.8455 17.6564H92.4279V20.5978H96.4104V21.7163H92.4279V24.6577H96.8455V25.7974H91.1772V16.5166H96.8455V17.6564Z" fill="#161616" stroke="#161616" stroke-width="0.0639497" stroke-miterlimit="10"/>
    <path d="M102.111 25.7974H100.86V17.6564H98.1504V16.5166H104.822V17.6564H102.111V25.7974Z" fill="#161616" stroke="#161616" stroke-width="0.0639497" stroke-miterlimit="10"/>
    <path d="M109.651 25.7974V16.5166H110.898V25.7974H109.651Z" fill="#161616" stroke="#161616" stroke-width="0.0639497" stroke-miterlimit="10"/>
    <path d="M116.434 25.7974H115.194V17.6564H112.474V16.5166H119.154V17.6564H116.434V25.7974Z" fill="#161616" stroke="#161616" stroke-width="0.0639497" stroke-miterlimit="10"/>
    <path d="M131.785 24.6034C130.828 25.542 129.642 26.0103 128.228 26.0103C126.805 26.0103 125.619 25.542 124.662 24.6034C123.707 23.6668 123.231 22.5174 123.231 21.157C123.231 19.7966 123.707 18.6471 124.662 17.7105C125.619 16.772 126.805 16.3037 128.228 16.3037C129.634 16.3037 130.82 16.772 131.777 17.7183C132.741 18.6626 133.216 19.8043 133.216 21.157C133.216 22.5174 132.741 23.6668 131.785 24.6034ZM125.587 23.8255C126.307 24.5202 127.184 24.8686 128.228 24.8686C129.264 24.8686 130.148 24.5202 130.861 23.8255C131.579 23.1308 131.943 22.2387 131.943 21.157C131.943 20.0753 131.579 19.1832 130.861 18.4885C130.148 17.7938 129.264 17.4454 128.228 17.4454C127.184 17.4454 126.307 17.7938 125.587 18.4885C124.869 19.1832 124.504 20.0753 124.504 21.157C124.504 22.2387 124.869 23.1308 125.587 23.8255Z" fill="#161616" stroke="#161616" stroke-width="0.0639497" stroke-miterlimit="10"/>
    <path d="M134.971 25.7974V16.5166H136.488L141.208 23.7346H141.262L141.208 21.9504V16.5166H142.456V25.7974H141.153L136.211 18.2234H136.157L136.211 20.0153V25.7974H134.971Z" fill="#161616" stroke="#161616" stroke-width="0.0639497" stroke-miterlimit="10"/>
    <path d="M123.43 40.2244C119.628 40.2244 116.521 42.9916 116.521 46.8096C116.521 50.5966 119.628 53.3929 123.43 53.3929C127.241 53.3929 130.347 50.5966 130.347 46.8096C130.347 42.9916 127.241 40.2244 123.43 40.2244ZM123.43 50.7998C121.344 50.7998 119.549 49.153 119.549 46.8096C119.549 44.4352 121.344 42.8175 123.43 42.8175C125.517 42.8175 127.32 44.4352 127.32 46.8096C127.32 49.153 125.517 50.7998 123.43 50.7998ZM108.356 40.2244C104.545 40.2244 101.447 42.9916 101.447 46.8096C101.447 50.5966 104.545 53.3929 108.356 53.3929C112.164 53.3929 115.265 50.5966 115.265 46.8096C115.265 42.9916 112.164 40.2244 108.356 40.2244ZM108.356 50.7998C106.268 50.7998 104.467 49.153 104.467 46.8096C104.467 44.4352 106.268 42.8175 108.356 42.8175C110.442 42.8175 112.237 44.4352 112.237 46.8096C112.237 49.153 110.442 50.7998 108.356 50.7998ZM90.4183 42.2427V45.0409H97.406C97.2016 46.6045 96.6552 47.7539 95.8174 48.5551C94.7975 49.5226 93.2089 50.5966 90.4183 50.5966C86.118 50.5966 82.7507 47.2779 82.7507 43.1658C82.7507 39.0536 86.118 35.7349 90.4183 35.7349C92.7435 35.7349 94.4353 36.6038 95.6839 37.73L97.746 35.7581C95.9995 34.1636 93.6764 32.9387 90.4183 32.9387C84.5214 32.9387 79.5654 37.5268 79.5654 43.1658C79.5654 48.8047 84.5214 53.3929 90.4183 53.3929C93.6056 53.3929 95.9995 52.3944 97.8815 50.5212C99.8101 48.677 100.411 46.0839 100.411 43.9901C100.411 43.3399 100.354 42.742 100.253 42.2427H90.4183ZM163.768 44.412C163.199 42.9394 161.445 40.2244 157.871 40.2244C154.329 40.2244 151.381 42.8929 151.381 46.8096C151.381 50.498 154.299 53.3929 158.211 53.3929C161.374 53.3929 163.199 51.5487 163.95 50.4747L161.602 48.9789C160.819 50.0742 159.753 50.7998 158.211 50.7998C156.679 50.7998 155.58 50.1283 154.876 48.8047L164.085 45.1609L163.768 44.412ZM154.378 46.6045C154.299 44.0656 156.44 42.7652 157.974 42.7652C159.176 42.7652 160.196 43.3399 160.536 44.1624L154.378 46.6045ZM146.892 52.9923H149.92V33.6411H146.892V52.9923ZM141.935 41.6912H141.833C141.153 40.921 139.856 40.2244 138.213 40.2244C134.765 40.2244 131.612 43.1193 131.612 46.8309C131.612 50.5212 134.765 53.3929 138.213 53.3929C139.856 53.3929 141.153 52.6904 141.833 51.897H141.935V52.8414C141.935 55.359 140.528 56.7116 138.26 56.7116C136.41 56.7116 135.263 55.4344 134.789 54.3605L132.156 55.4112C132.915 57.1567 134.925 59.3047 138.26 59.3047C141.809 59.3047 144.804 57.3076 144.804 52.4486V40.625H141.935V41.6912ZM138.472 50.7998C136.386 50.7998 134.639 49.1298 134.639 46.8309C134.639 44.5107 136.386 42.8175 138.472 42.8175C140.528 42.8175 142.149 44.5107 142.149 46.8309C142.149 49.1298 140.528 50.7998 138.472 50.7998ZM177.941 33.6411H170.701V52.9923H173.72V45.6601H177.941C181.295 45.6601 184.583 43.3399 184.583 39.6497C184.583 35.9613 181.287 33.6411 177.941 33.6411ZM178.02 42.9684H173.72V36.3329H178.02C180.275 36.3329 181.562 38.1228 181.562 39.6497C181.562 41.1474 180.275 42.9684 178.02 42.9684ZM196.685 40.1876C194.503 40.1876 192.234 41.1087 191.302 43.1503L193.981 44.2243C194.558 43.1503 195.618 42.802 196.739 42.802C198.305 42.802 199.894 43.7018 199.918 45.2905V45.4937C199.372 45.1918 198.202 44.7448 196.763 44.7448C193.878 44.7448 190.937 46.2639 190.937 49.0989C190.937 51.6919 193.301 53.3619 195.958 53.3619C197.99 53.3619 199.111 52.4853 199.815 51.4655H199.918V52.9614H202.834V45.5382C202.834 42.1073 200.155 40.1876 196.685 40.1876ZM196.32 50.7921C195.333 50.7921 193.957 50.3238 193.957 49.153C193.957 47.6553 195.673 47.0805 197.158 47.0805C198.488 47.0805 199.111 47.3611 199.918 47.7307C199.682 49.5226 198.069 50.7921 196.32 50.7921ZM213.459 40.6114L209.988 49.0002H209.885L206.297 40.6114H203.041L208.432 52.3344L205.356 58.8577H208.511L216.818 40.6114H213.459ZM186.242 52.9923H189.27V33.6411H186.242V52.9923Z" fill="#161616"/>
</svg>
