<svg width="30" height="28" viewBox="0 0 30 28" fill="none" xmlns="http://www.w3.org/2000/svg">
<path d="M14.4978 0.557527C14.6571 0.0672834 15.3507 0.0672847 15.5099 0.557528L18.5879 10.0305C18.6591 10.2497 18.8634 10.3982 19.094 10.3982H29.0544C29.5699 10.3982 29.7842 11.0578 29.3672 11.3608L21.309 17.2154C21.1225 17.3509 21.0445 17.591 21.1157 17.8103L24.1937 27.2832C24.3529 27.7735 23.7918 28.1812 23.3748 27.8782L15.3166 22.0236C15.1301 21.8881 14.8776 21.8881 14.6911 22.0236L6.63293 27.8782C6.21591 28.1812 5.6548 27.7735 5.81409 27.2832L8.89204 17.8103C8.96327 17.591 8.88524 17.3509 8.69874 17.2154L0.640563 11.3608C0.223537 11.0578 0.437861 10.3982 0.953334 10.3982H10.9138C11.1443 10.3982 11.3486 10.2497 11.4199 10.0305L14.4978 0.557527Z" fill="#3DFA52"/>
</svg>
