<svg width="30" height="28" viewBox="0 0 30 28" fill="none" xmlns="http://www.w3.org/2000/svg">
<path d="M14.4902 0.557527C14.6495 0.0672834 15.3431 0.0672847 15.5024 0.557528L18.5803 10.0305C18.6516 10.2497 18.8559 10.3982 19.0864 10.3982H29.0468C29.5623 10.3982 29.7766 11.0578 29.3596 11.3608L21.3014 17.2154C21.1149 17.3509 21.0369 17.591 21.1081 17.8103L24.1861 27.2832C24.3454 27.7735 23.7843 28.1812 23.3672 27.8782L15.3091 22.0236C15.1226 21.8881 14.87 21.8881 14.6835 22.0236L6.62536 27.8782C6.20834 28.1812 5.64723 27.7735 5.80652 27.2832L8.88447 17.8103C8.95571 17.591 8.87767 17.3509 8.69117 17.2154L0.632995 11.3608C0.215969 11.0578 0.430293 10.3982 0.945765 10.3982H10.9062C11.1367 10.3982 11.341 10.2497 11.4123 10.0305L14.4902 0.557527Z" fill="url(#paint0_linear_429_8886)"/>
<defs>
<linearGradient id="paint0_linear_429_8886" x1="4.62006" y1="12.0368" x2="31.4919" y2="12.0368" gradientUnits="userSpaceOnUse">
<stop stop-color="#3DFA52"/>
<stop offset="0.7499" stop-color="#3DFA52"/>
<stop offset="0.75" stop-color="white"/>
<stop offset="1" stop-color="white"/>
</linearGradient>
</defs>
</svg>
